<?xml version="1.0" standalone="no"?>
<!DOCTYPE svg PUBLIC "-//W3C//DTD SVG 20010904//EN"
 "http://www.w3.org/TR/2001/REC-SVG-20010904/DTD/svg10.dtd">
<svg version="1.0" xmlns="http://www.w3.org/2000/svg"
 width="500.000000pt" height="500.000000pt" viewBox="0 0 500.000000 500.000000"
 preserveAspectRatio="xMidYMid meet">

<g transform="translate(0.000000,500.000000) scale(0.100000,-0.100000)"
fill="#000000" stroke="none">
<path d="M0 2500 l0 -2500 2500 0 2500 0 0 2500 0 2500 -2500 0 -2500 0 0
-2500z m1826 639 c162 -30 286 -149 310 -296 l7 -43 -42 0 c-34 0 -41 3 -41
20 0 45 -42 129 -82 165 -170 155 -510 102 -584 -90 -16 -44 -16 -141 0 -178
8 -16 4 -18 -35 -15 -42 3 -44 5 -52 43 -28 133 52 288 186 356 85 44 218 59
333 38z m514 -13 c0 -3 25 -94 55 -203 30 -109 55 -204 55 -210 0 -8 -14 -13
-35 -13 -32 0 -35 3 -45 43 -7 23 -29 103 -50 177 -21 74 -43 152 -48 173
l-10 37 39 0 c21 0 39 -2 39 -4z m783 -200 c31 -112 57 -209 57 -215 0 -6 -15
-11 -34 -11 l-33 0 -37 133 c-20 72 -39 139 -42 147 -4 8 -25 -50 -48 -130
l-42 -145 -36 -3 -37 -3 20 68 c10 37 38 134 61 216 l42 147 36 0 36 0 57
-204z m677 195 c0 -4 -18 -71 -41 -147 -22 -76 -49 -169 -60 -206 -20 -67 -20
-68 -54 -68 -19 0 -35 3 -35 8 0 7 105 379 115 410 5 13 75 17 75 3z m-2736
-532 c14 -11 26 -25 26 -30 0 -15 -27 -10 -34 6 -8 21 -75 20 -83 -1 -8 -21 8
-34 64 -53 41 -14 48 -20 51 -44 5 -40 -22 -67 -67 -67 -36 0 -81 22 -81 41 0
14 20 11 36 -6 22 -22 71 -19 84 4 12 24 -10 51 -41 51 -23 0 -61 18 -71 34
-13 19 -9 36 17 61 30 30 64 32 99 4z m2431 -4 c14 -13 25 -29 25 -35 0 -17
-25 -11 -38 10 -16 27 -68 27 -82 1 -16 -31 -12 -102 7 -123 21 -24 60 -23 75
2 13 21 38 27 38 10 0 -23 -41 -50 -75 -50 -53 0 -85 36 -85 94 0 55 15 90 44
104 35 18 66 13 91 -13z m246 -4 c24 -25 29 -37 29 -81 0 -66 -30 -100 -89
-100 -55 0 -81 34 -81 104 1 53 11 74 45 94 33 19 65 13 96 -17z m-2531 -21
l0 -40 55 0 55 0 0 40 c0 22 5 40 10 40 6 0 10 -40 10 -100 0 -60 -4 -100 -10
-100 -5 0 -10 20 -10 45 l0 45 -55 0 -55 0 0 -45 c0 -33 -4 -45 -15 -45 -12 0
-15 18 -15 100 0 82 3 100 15 100 11 0 15 -11 15 -40z m356 -60 c40 -111 37
-100 21 -100 -7 0 -18 14 -24 30 -10 26 -16 30 -51 30 -35 0 -41 -3 -51 -30
-5 -16 -15 -30 -20 -30 -16 0 -15 5 21 108 44 123 58 122 104 -8z m237 80 c49
-39 42 -137 -14 -165 -15 -8 -46 -15 -69 -15 l-40 0 0 100 0 100 49 0 c33 0
56 -6 74 -20z m147 -80 c0 -82 -3 -100 -15 -100 -12 0 -15 18 -15 100 0 82 3
100 15 100 12 0 15 -18 15 -100z m104 83 c3 -10 13 -45 22 -78 l17 -60 21 75
c28 98 44 98 70 0 l20 -75 24 78 c14 46 28 77 37 77 10 0 6 -23 -16 -97 -16
-53 -29 -98 -29 -100 0 -1 -6 -3 -14 -3 -8 0 -20 26 -32 70 -10 39 -21 70 -25
70 -3 0 -15 -31 -25 -70 -10 -40 -23 -70 -31 -70 -7 0 -21 32 -33 73 -12 39
-25 84 -30 100 -7 21 -6 27 5 27 7 0 16 -8 19 -17z m427 -83 c28 -76 33 -100
22 -100 -8 0 -19 14 -24 30 -10 27 -16 30 -50 30 -35 0 -41 -3 -50 -30 -6 -16
-18 -30 -26 -30 -10 0 -13 5 -8 18 4 9 17 46 30 82 34 97 36 100 54 100 11 0
26 -29 52 -100z m209 96 c0 -2 16 -47 35 -100 26 -72 31 -96 21 -96 -8 0 -19
14 -25 30 -9 26 -15 30 -49 30 -35 0 -41 -4 -52 -30 -7 -16 -18 -30 -26 -30
-9 0 -4 26 21 95 19 53 35 98 35 100 0 3 9 5 20 5 11 0 20 -2 20 -4z m180 -86
l0 -90 45 0 c25 0 45 -4 45 -10 0 -6 -27 -10 -60 -10 l-60 0 0 100 c0 82 3
100 15 100 12 0 15 -17 15 -90z m310 80 c0 -5 -25 -10 -55 -10 -54 0 -55 0
-55 -29 0 -28 2 -30 47 -33 67 -4 70 -28 3 -28 l-51 0 3 -32 c3 -32 4 -33 56
-36 75 -4 65 -22 -13 -22 l-65 0 0 100 0 100 65 0 c37 0 65 -4 65 -10z m744
-70 c16 -44 29 -80 31 -80 2 0 15 36 31 80 21 61 32 80 46 80 16 0 18 -10 18
-100 0 -118 -18 -136 -22 -22 l-3 77 -29 -77 c-16 -43 -34 -78 -41 -78 -7 0
-25 35 -41 78 l-29 77 -3 -77 c-4 -114 -22 -96 -22 22 0 90 2 100 18 100 14 0
25 -19 46 -80z m-644 -105 c0 -8 -7 -15 -15 -15 -8 0 -15 7 -15 15 0 8 7 15
15 15 8 0 15 -7 15 -15z m-1126 -146 c11 -56 6 -144 -10 -192 -56 -163 -294
-260 -528 -214 -184 36 -304 134 -344 280 l-10 37 37 0 c36 0 39 -2 56 -47 56
-147 247 -234 446 -205 99 14 155 38 213 92 72 66 91 150 60 258 -6 20 -3 22
34 22 36 0 40 -3 46 -31z m456 -126 c23 -87 45 -162 48 -167 3 -5 26 64 52
155 l47 164 36 3 36 3 -20 -68 c-10 -37 -38 -134 -61 -215 l-42 -148 -45 0
-46 0 -58 208 c-32 114 -58 210 -57 215 0 4 15 7 34 7 l33 0 43 -157z m730 5
c23 -84 46 -159 50 -166 4 -8 20 35 39 100 18 62 39 137 47 166 15 50 17 52
50 52 19 0 34 -3 34 -7 0 -5 -26 -100 -58 -213 l-59 -205 -49 -3 -49 -3 -58
208 c-32 114 -57 211 -57 216 0 4 15 7 34 7 l34 0 42 -152z"/>
<path d="M3639 2558 c-18 -33 -14 -95 6 -118 23 -25 57 -26 78 -2 19 21 23 92
7 123 -15 28 -75 26 -91 -3z"/>
<path d="M1496 2530 c-9 -23 -15 -45 -12 -47 2 -2 18 -3 34 -1 l30 3 -17 44
-18 44 -17 -43z"/>
<path d="M1710 2499 l0 -81 32 6 c17 3 37 11 44 17 20 17 28 73 13 100 -16 31
-28 39 -61 39 l-28 0 0 -81z"/>
<path d="M2412 2531 c-16 -52 -16 -51 19 -51 32 0 33 2 8 68 -11 30 -14 28
-27 -17z"/>
<path d="M2652 2527 c-16 -46 -16 -47 18 -47 33 0 35 3 19 49 -14 40 -22 39
-37 -2z"/>
</g>
</svg>
